<?xml version="1.0" encoding="utf-8"?>
<!-- Generator: Adobe Illustrator 21.0.2, SVG Export Plug-In . SVG Version: 6.00 Build 0)  -->
<svg version="1.1" id="Capa_1" xmlns="http://www.w3.org/2000/svg" xmlns:xlink="http://www.w3.org/1999/xlink" x="0px" y="0px"
	 viewBox="0 0 512 512" style="enable-background:new 0 0 512 512;" xml:space="preserve">
<style type="text/css">
	.st0{fill:#50514F;}
</style>
<path class="st0" d="M454.2,194.7h-30.4c-2.3,0-4.5,0.9-6.2,2.5l-6.5,6.2c-10.9-25.3-26.6-50.3-47.8-76.2c-11.5-14-28.3-22-46.4-22
	H195.4c-18,0-35,8-46.4,22c-21.8,26.7-37.2,51.2-47.9,76.1l-6.4-6.2c-1.7-1.6-3.9-2.5-6.2-2.5H58.1c-4.9,0-9,4-9,9v20.8
	c0,4.8,3.7,8.6,8.4,9l31.2,2c-4.7,13.7-8.4,34.3-8.4,63.2c0,25.1,5,41.6,13.7,52.3v48.4c0,4.1,3.4,7.5,7.5,7.5H136
	c4.1,0,7.5-3.4,7.5-7.5v-30.1h225v30c0,4.1,3.4,7.5,7.5,7.5h34.5c4.1,0,7.5-3.4,7.5-7.5v-48.4c8.7-10.7,13.7-27.2,13.7-52.3
	c0-29-3.7-49.5-8.4-63.2l31.2-2c4.7-0.4,8.4-4.2,8.4-9v-20.8C463.2,198.7,459.1,194.7,454.2,194.7z M174.6,148.2
	c5.1-6.2,12.7-9.9,20.8-9.9H317c8.1,0,15.7,3.6,20.8,9.9c14.8,18.1,26.6,35.4,35.6,52.8h-30.9c2.3-4.9,3.7-10.4,3.7-16.2
	c0-21.2-17.2-38.4-38.4-38.4s-38.4,17.2-38.4,38.4c0,5.8,1.3,11.3,3.7,16.3l-134,0.1C147.6,184.1,159.5,166.7,174.6,148.2z
	 M149,332.5c-17.2,0-31.1-5.6-31.1-19.3c0-13.5,5.1-24.7,22.2-24.7s40,11.1,40,24.7C180.1,326.9,166.2,332.5,149,332.5z
	 M288.9,329.7h-65.2c-9.9,0-17.9-8-17.9-17.9c0-2.8,2.2-5,5-5h91c2.8,0,5,2.2,5,5C306.6,321.7,298.6,329.7,288.9,329.7z
	 M363.3,332.5c-17.2,0-31.1-5.6-31.1-19.3c0-13.5,22.8-24.7,40-24.7s22.2,11.1,22.2,24.7S380.5,332.5,363.3,332.5z"/>
</svg>
