<?xml version="1.0" encoding="utf-8"?>
<!-- Generator: Adobe Illustrator 21.0.2, SVG Export Plug-In . SVG Version: 6.00 Build 0)  -->
<svg version="1.1" id="Capa_1" xmlns="http://www.w3.org/2000/svg" xmlns:xlink="http://www.w3.org/1999/xlink" x="0px" y="0px"
	 viewBox="0 0 512 512" style="enable-background:new 0 0 512 512;" xml:space="preserve">
<style type="text/css">
	.st0{fill:#50514F;}
</style>
<g>
	<path class="st0" d="M463.1,287.7c0.7-2,0.5-4.2-0.7-6c-11.1-16.4-29.5-26.2-49.2-26.2c-0.5,0-1,0-1.6,0v-7.7c0-3.8-2.7-7-6.4-7.6
		l-12.8-2.3l-13.2-53.4c-0.5-2-1.7-3.7-3.5-4.8l-4.5-2.8c0.7-0.4,1.4-0.9,2-1.4c1.9-1.5,2.9-3.7,2.9-6.1V142c0-0.5,0-1-0.1-1.5
		l-0.7-3.6c-0.4-1.9-1.4-3.6-3-4.8c-5.9-4.4-13.7-6.2-20.9-4.8c-7.2,1.4-13.1,5.5-16.9,11.1l-37.5,4c-6.4,0.7-11,6.4-10.4,12.8
		c0.6,6,5.7,10.4,11.6,10.4c0.4,0,0.8,0,1.2-0.1l31.8-3.4c1.1,3.8,3,7.1,5.5,10c0,0,0,0.1,0,0.1c9.2,21.2,29.7,81.5,14.1,105.4
		c-4.5,6.8-11.9,10.1-22.6,10.1h-43.5c-12.5,0-23.4-5.6-28.6-14.6c-5.5-9.7-4.2-22.5,3.7-37.3c2.3-1.3,3.9-3.9,3.9-6.8v-39.6
		c0-4.3-3.5-7.8-7.8-7.8h-134c-4.3,0-7.8,3.5-7.8,7.8v33.7c-15.8,5.8-44.4,22.4-65,69.3c-0.4,1-0.7,2-0.7,3.1v15
		c0,4.3,3.5,7.8,7.8,7.8H68c1,28.2,24.2,50.8,52.7,50.8c28.5,0,51.6-22.6,52.7-50.8H356c1,28.2,24.2,50.8,52.7,50.8
		c29.1,0,52.7-23.6,52.7-52.7c0-8.6-2.1-16.7-5.7-23.9l3-0.8C460.7,291.2,462.3,289.7,463.1,287.7z M139.9,243.6h33.4
		c2.5,0,4.5,2,4.5,4.5c0,2.5-2,4.5-4.5,4.5h-33.4c-2.5,0-4.5-2-4.5-4.5C135.4,245.6,137.4,243.6,139.9,243.6z M120.7,337
		c-10.6,0-19.4-8.1-20.3-18.5H141C140,328.8,131.3,337,120.7,337z M173.2,285h-33.4c-2.5,0-4.5-2-4.5-4.5c0-2.5,2-4.5,4.5-4.5h33.4
		c2.5,0,4.5,2,4.5,4.5C177.7,283,175.7,285,173.2,285z M188.2,268.8h-63.4c-2.5,0-4.5-2-4.5-4.5c0-2.5,2-4.5,4.5-4.5h63.4
		c2.5,0,4.5,2,4.5,4.5C192.7,266.8,190.7,268.8,188.2,268.8z M408.7,337c-11.3,0-20.4-9.2-20.4-20.4c0-2,0.3-3.9,0.8-5.7l33.6-9.2
		c4,3.7,6.5,9,6.5,14.9C429.1,327.8,420,337,408.7,337z"/>
</g>
</svg>
