<?xml version="1.0" encoding="utf-8"?>
<!-- Generator: Adobe Illustrator 21.0.2, SVG Export Plug-In . SVG Version: 6.00 Build 0)  -->
<svg version="1.1" id="Capa_1" xmlns="http://www.w3.org/2000/svg" xmlns:xlink="http://www.w3.org/1999/xlink" x="0px" y="0px"
	 viewBox="0 0 512 512" style="enable-background:new 0 0 512 512;" xml:space="preserve">
<style type="text/css">
	.st0{fill:#50514F;}
</style>
<g>
	<path class="st0" d="M331.2,68.2H180.9c-41.5,0-75.1,33.6-75.1,75.1v225.5c0,13.8,11.2,25,25,25v25c0,13.8,11.2,25,25,25h25
		c13.8,0,25-11.2,25-25v-25h100.3v25c0,13.8,11.2,25,25,25h25.1c13.8,0,25-11.2,25-25v-25c13.8,0,25-11.2,25-25V143.3
		C406.2,101.8,372.6,68.1,331.2,68.2z M205.8,93.2H306v25H205.8V93.2z M155.8,368.8c-13.8,0-25-11.2-25-25c0-13.8,11.2-25,25-25
		c13.8,0,25,11.2,25,25C180.8,357.6,169.5,368.8,155.8,368.8z M356.1,368.8c-13.8,0-25-11.2-25-25c0-13.8,11.2-25,25-25
		c13.8,0,25,11.2,25,25C381.1,357.6,370,368.8,356.1,368.8z M381.2,293.7H130.7V143.3h250.6V293.7z"/>
</g>
</svg>
