<?xml version="1.0" encoding="utf-8"?>
<!-- Generator: Adobe Illustrator 21.0.2, SVG Export Plug-In . SVG Version: 6.00 Build 0)  -->
<svg version="1.1" id="Capa_1" xmlns="http://www.w3.org/2000/svg" xmlns:xlink="http://www.w3.org/1999/xlink" x="0px" y="0px"
	 viewBox="0 0 512 512" style="enable-background:new 0 0 512 512;" xml:space="preserve">
<style type="text/css">
	.st0{fill:#50514F;}
</style>
<g>
	<g>
		<path class="st0" d="M375.4,207.8c-13.5,0-26.3,3.2-37.7,8.9c-4.1-14.7-6.8-28.6-8.3-38c9.4-3.2,21.8-9.4,31.8-21.4
			c4.8-5.8,4.1-14.4-1.7-19.2c-5.8-4.8-14.4-4.1-19.2,1.7c-10.9,13-27.3,15-27.4,15c-3.6,0.3-7,2.1-9.3,5c-2.3,2.8-3.4,6.4-3,10.1
			c0,0.4,0.5,4.2,1.4,10.2H195.9c-4.8,0-9.2,2.5-11.7,6.6l-16.3,27.1c-9.7-3.9-20.2-6-31.3-6c-46.6,0-84.6,38-84.6,84.6
			c0,46.6,38,84.6,84.6,84.6c42,0,76.9-30.8,83.5-71h38.8c5,0,9.6-2.8,12-7.2l40.4-75.3c0.6,2.3,1.3,4.6,2,7
			c0.3,1.1,0.7,2.2,1.1,3.3c-14.6,15.2-23.6,35.8-23.6,58.6c0,46.6,38,84.6,84.6,84.6c46.6,0,84.6-38,84.6-84.6
			C460,245.8,422,207.8,375.4,207.8z M136.6,349.8c-31.6,0-57.3-25.7-57.3-57.3c0-31.6,25.7-57.3,57.3-57.3c5.9,0,11.6,0.9,17,2.6
			l-28.7,47.7c-2.5,4.2-2.6,9.5-0.2,13.7c2.4,4.3,7,6.9,11.9,6.9h55.7C186.1,331.1,163.5,349.8,136.6,349.8z M192.3,278.8h-31.5
			l16.2-27C184.3,259.1,189.7,268.4,192.3,278.8z M250.7,278.8h-30.6c-3.3-20.3-13.8-38.1-28.8-50.8l12.3-20.5H289L250.7,278.8z
			 M375.4,349.8c-31.6,0-57.3-25.7-57.3-57.3c0-10.7,3-20.7,8.1-29.3c12.4,24.4,27.9,38.7,46.4,42.7c1,0.2,1.9,0.3,2.9,0.3
			c6.3,0,12-4.4,13.3-10.8c1.6-7.4-3.1-14.6-10.5-16.2c-11.5-2.4-22.3-15.1-31.4-36.3c8.4-4.9,18.2-7.7,28.6-7.7
			c31.6,0,57.3,25.7,57.3,57.3S407,349.8,375.4,349.8z"/>
		<path class="st0" d="M183.9,173.9h44.6c7.5,0,13.6-6.1,13.6-13.6c0-7.5-6.1-13.6-13.6-13.6h-44.6c-7.5,0-13.6,6.1-13.6,13.6
			C170.3,167.8,176.4,173.9,183.9,173.9z"/>
	</g>
</g>
</svg>
