<?xml version="1.0" encoding="utf-8"?>
<!-- Generator: Adobe Illustrator 21.0.2, SVG Export Plug-In . SVG Version: 6.00 Build 0)  -->
<svg version="1.1" id="Capa_1" xmlns="http://www.w3.org/2000/svg" xmlns:xlink="http://www.w3.org/1999/xlink" x="0px" y="0px"
	 viewBox="0 0 512 512" style="enable-background:new 0 0 512 512;" xml:space="preserve">
<style type="text/css">
	.st0{fill:#50514F;}
</style>
<g>
	<g>
		<path class="st0" d="M362.4,340.7l7-6.9c-27-23.5-61.6-62.4-91.4-91.2c3.7-7.3,1.5-16.4-5.6-21.1c-32.1-21.3-44.2-36.6-58.3-54.3
			c-6.3-7.9-12.8-16.1-21.5-25.5c-0.8-0.9-1.7-1.6-2.6-2.3c-3.3-3.1-7-5.7-10.9-7.6c0,0-4.1-2.2-8.8-3.1c-4.5-0.9-9.7-0.9-9.7-0.9
			h-0.1c-0.5,0-1,0.1-1.5,0.1c-0.4,0-0.7,0-1.1,0c-0.6,0.1-1.2,0.2-1.8,0.3c-0.7,0.1-1.3,0.2-1.9,0.3c-32.2,5-66,30.1-103.3,76.6
			c-5.7,7.1-4.6,17.5,2.5,23.2c3,2.4,6.7,3.6,10.3,3.6c4.8,0,9.6-2.1,12.9-6.2c16-20,30.1-34,42.2-43.8l-13.5,63.2
			c-1.9,9.1,0.6,17.5,5.6,24.3l-4.3,65l-27.1,70.1c-4.2,10.8,1.2,23,12,27.1c2.5,1,5.1,1.4,7.6,1.4c8.4,0,16.4-5.1,19.6-13.4
			l28.3-73.1c0.8-2,1.2-4.1,1.4-6.2l2.5-37.9l24.9,39.4l20.6,75.6c2.5,9.4,11,15.6,20.3,15.6c1.8,0,3.6-0.2,5.4-0.7
			c11.2-3,17.8-14.5,14.9-25.7L215.6,328c-0.5-2.1-1.4-4-2.5-5.8l-34-53.7c1.1-2.2,2-4.5,2.6-7l13.9-64.9c13,15.9,28,31.9,58.7,52.3
			c2.8,1.9,6,2.8,9.1,2.8c3.2,0,6.3-1,9-2.8C299.8,275.6,334.4,316.4,362.4,340.7z"/>
		<circle class="st0" cx="189.4" cy="87.8" r="42.5"/>
		<path class="st0" d="M318.9,345.6l-14.7-11.8c-3.3-2.7-8.2-2.1-10.8,1.2c-2.7,3.3-2.1,8.2,1.2,10.8l15,12v32.7
			c0,0.2,0,0.4,0.1,0.5l-13.2,25.3c-2,3.8-0.5,8.4,3.3,10.4c1.1,0.6,2.4,0.9,3.6,0.9c2.8,0,5.5-1.5,6.8-4.1l13.3-25.5l14.8,25.8
			c1.4,2.5,4,3.9,6.7,3.9c1.3,0,2.6-0.3,3.8-1c3.7-2.1,5-6.8,2.8-10.5l-12.9-22.5h47.9V420c0,4.3,3.5,7.7,7.7,7.7
			c4.3,0,7.7-3.5,7.7-7.7v-28.8c0-0.2,0.1-0.4,0.1-0.6v-24.4l-35.9-20.6L318.9,345.6L318.9,345.6z"/>
		<path class="st0" d="M422,330c-4.8-4.5-6.4-9.7-11.7-13.5c-0.9-0.7-1.9-1.3-2.9-1.9c-0.6-0.3-0.8-0.7-0.7-1.4
			c0.2-2.2,0.5-4.4,0.6-6.6c0.3-4-0.8-7.6-4-9.9c-1.3-0.9-7.6-4-10.3,6.5c-0.6,2.3-1.4,4.5-2.5,6.6c-4,7.6-9,14.6-13.8,21.7
			c-2.2,3.2-4.4,6.5-6.6,9.7l33.7,19.2c0,0,6.5-7.1,7.4-6.7c1.3,0.6,2.5,1.1,3.8,1.7c3.7,1.6,7.6,2.4,11.6,2.1
			c6.9-0.4,14.1-4.1,14.7-12.3C442,337.4,423.6,331.5,422,330z"/>
	</g>
</g>
</svg>
