<?xml version="1.0" encoding="utf-8"?>
<!-- Generator: Adobe Illustrator 21.0.2, SVG Export Plug-In . SVG Version: 6.00 Build 0)  -->
<svg version="1.1" id="Capa_1" xmlns="http://www.w3.org/2000/svg" xmlns:xlink="http://www.w3.org/1999/xlink" x="0px" y="0px"
	 viewBox="0 0 512 512" style="enable-background:new 0 0 512 512;" xml:space="preserve">
<style type="text/css">
	.st0{fill:#50514F;}
</style>
<g>
	<path class="st0" d="M259.3,161.7c-58.8,0-111.7,9.4-148,24.4l-9.7-19.7c-1-2-3.1-3.3-5.3-3.3H59.9c-2.1,0-4,1.1-5.1,2.9
		c-1.1,1.8-1.1,4-0.2,5.8l19.4,36.5c-8.8,8.2-13.6,17.2-13.6,26.6c0,9.4,4.8,18.4,13.6,26.6l-19.4,36.5c-1,1.8-0.9,4,0.2,5.8
		c1.1,1.8,3,2.9,5.1,2.9h36.3c2.3,0,4.3-1.3,5.3-3.3l9.7-19.7c23.7,9.7,65.6,19.8,88.9,21.1c2.1,0.2,4.1,0.4,6.1,0.5l13.4,36.2
		c2,5.3,7,8.8,12.7,8.8h80.9c5.7,0,10.7-3.5,12.7-8.8l13.4-36.1c69.8-5.9,118.6-23.4,118.6-70.4C458,171.3,369,161.7,259.3,161.7z
		 M260.8,325.2c0,2.9-2.3,5.2-5.2,5.2H247c-2.9,0-5.2-2.3-5.2-5.2v-5.8c0-2.9,2.3-5.2,5.2-5.2h8.6c2.9,0,5.2,2.3,5.2,5.2V325.2
		L260.8,325.2z M303.6,325.2c0,2.9-2.3,5.2-5.2,5.2h-8.6c-2.9,0-5.2-2.3-5.2-5.2v-5.8c0-2.9,2.3-5.2,5.2-5.2h8.6
		c2.9,0,5.2,2.3,5.2,5.2V325.2L303.6,325.2z"/>
</g>
</svg>
