<?xml version="1.0" encoding="utf-8"?>
<!-- Generator: Adobe Illustrator 21.0.2, SVG Export Plug-In . SVG Version: 6.00 Build 0)  -->
<svg version="1.1" id="Capa_1" xmlns="http://www.w3.org/2000/svg" xmlns:xlink="http://www.w3.org/1999/xlink" x="0px" y="0px"
	 viewBox="0 0 512 512" style="enable-background:new 0 0 512 512;" xml:space="preserve">
<style type="text/css">
	.st0{fill:#50514F;}
</style>
<path class="st0" d="M449,195.8h-30.5c-2.4,0-4.5,0.9-6.2,2.5l-6.5,6.2c-10.9-25.4-26.7-50.4-47.9-76.3c-11.5-14-28.4-22-46.5-22
	H189.6c-18.1,0-35.1,8-46.5,22c-21.9,26.7-37.3,51.2-48,76.3l-6.4-6.2c-1.7-1.6-3.9-2.5-6.2-2.5H52c-4.9,0-9,4.1-9,9v20.8
	c0,4.8,3.7,8.7,8.4,9l31.3,1.9C78,250.4,74.3,271,74.3,300c0,25.2,5,41.7,13.8,52.4v48.5c0,4.1,3.4,7.5,7.5,7.5h34.6
	c4.1,0,7.5-3.4,7.5-7.5v-30.2h225.5v30.1c0,4.1,3.4,7.5,7.5,7.5h34.6c4.1,0,7.5-3.4,7.5-7.5v-48.5c8.8-10.7,13.8-27.2,13.8-52.4
	c0-29-3.7-49.6-8.4-63.4l31.3-1.9c4.7-0.3,8.4-4.2,8.4-9v-20.8C458,199.8,453.9,195.8,449,195.8z M168.7,149.2
	c5.1-6.2,12.7-9.9,20.8-9.9h121.8c8.1,0,15.7,3.6,20.8,9.9c14.8,18.2,26.6,35.5,35.7,52.8l-131.5,0c2.3-5,3.6-10.5,3.6-16.3
	c0-21.3-17.2-38.5-38.5-38.5S163,164.5,163,185.8c0,5.9,1.3,11.4,3.6,16.4l-33.8,0C141.7,185.1,153.6,167.8,168.7,149.2z
	 M143.1,333.9c-17.3,0-31.2-5.6-31.2-19.3c0-13.6,5.1-24.7,22.3-24.7s40.1,11.1,40.1,24.7S160.4,333.9,143.1,333.9z M283.3,331.1
	h-65.4c-9.9,0-17.9-8-17.9-17.9c0-2.8,2.3-5,5-5h91.2c2.8,0,5,2.3,5,5C301.1,323.1,293.1,331.1,283.3,331.1z M357.9,333.9
	c-17.3,0-31.2-5.6-31.2-19.3c0-13.6,22.9-24.7,40.1-24.7s22.3,11.1,22.3,24.7S375.2,333.9,357.9,333.9z"/>
</svg>
