<?xml version="1.0" encoding="utf-8"?>
<!-- Generator: Adobe Illustrator 21.0.2, SVG Export Plug-In . SVG Version: 6.00 Build 0)  -->
<svg version="1.1" id="Capa_1" xmlns="http://www.w3.org/2000/svg" xmlns:xlink="http://www.w3.org/1999/xlink" x="0px" y="0px"
	 viewBox="0 0 512 512" style="enable-background:new 0 0 512 512;" xml:space="preserve">
<style type="text/css">
	.st0{fill:#50514F;}
</style>
<g>
	<g id="directions-subway">
		<path class="st0" d="M256,76.3c-83.2,0-151.3,9.5-151.3,75.6v179.7c0,35.9,30.3,66.2,66.2,66.2l-28.4,28.4v9.5h226.9v-9.5
			l-28.4-28.4c35.9,0,66.2-30.3,66.2-66.2V152C407.3,85.8,339.2,76.3,256,76.3z M170.9,360c-15.1,0-28.4-13.2-28.4-28.4
			s13.2-28.4,28.4-28.4c15.1,0,28.4,13.2,28.4,28.4S186,360,170.9,360z M237.1,246.5h-94.6V152h94.6V246.5z M341.1,360
			c-15.1,0-28.4-13.2-28.4-28.4s13.2-28.4,28.4-28.4c15.1,0,28.4,13.2,28.4,28.4S356.2,360,341.1,360z M369.5,246.5h-94.6V152h94.6
			V246.5z"/>
	</g>
</g>
</svg>
